<svg width="512" height="512" viewBox="0 0 512 512" fill="none" xmlns="http://www.w3.org/2000/svg">
  <!-- Orange rounded background -->
  <rect width="512" height="512" rx="90" ry="90" fill="#FF6B35"/>
  
  <!-- Subtle gradient overlay for depth -->
  <defs>
    <linearGradient id="iconGradient" x1="0%" y1="0%" x2="100%" y2="100%">
      <stop offset="0%" style="stop-color:#FF7A45;stop-opacity:0.6"/>
      <stop offset="100%" style="stop-color:#E55A2B;stop-opacity:0.3"/>
    </linearGradient>
  </defs>
  <rect width="512" height="512" rx="90" ry="90" fill="url(#iconGradient)"/>
  
  <!-- Newspaper icon -->
  <g transform="translate(128, 128)">
    <!-- Main newspaper background -->
    <rect x="0" y="32" width="256" height="192" rx="8" ry="8" fill="white"/>
    
    <!-- Newspaper header with zigzag pattern -->
    <path d="M0 32 L16 16 L32 32 L48 16 L64 32 L80 16 L96 32 L112 16 L128 32 L144 16 L160 32 L176 16 L192 32 L208 16 L224 32 L240 16 L256 32 L256 40 L0 40 Z" fill="white"/>
    
    <!-- Main headline bar -->
    <rect x="24" y="64" width="208" height="24" rx="4" ry="4" fill="#B8471F"/>
    
    <!-- Article sections -->
    <!-- Left column - main article -->
    <rect x="24" y="104" width="100" height="60" rx="4" ry="4" fill="#B8471F"/>
    
    <!-- Right column - two smaller articles -->
    <rect x="140" y="104" width="92" height="28" rx="4" ry="4" fill="#B8471F"/>
    <rect x="140" y="140" width="92" height="28" rx="4" ry="4" fill="#B8471F"/>
    
    <!-- Bottom section - additional content lines -->
    <rect x="24" y="180" width="208" height="8" rx="2" ry="2" fill="#D4D4D4" opacity="0.7"/>
    <rect x="24" y="196" width="160" height="8" rx="2" ry="2" fill="#D4D4D4" opacity="0.7"/>
  </g>
</svg>